<svg xmlns="http://www.w3.org/2000/svg" xmlns:xlink="http://www.w3.org/1999/xlink" id="processonSvg1000" viewBox="-9.5 55.0 1265.76200847727 1077.0" width="1265.76200847727" height="1077.0"><defs id="ProcessOnDefs1001"><marker id="ProcessOnMarker1014" markerUnits="userSpaceOnUse" orient="auto" markerWidth="16.23606797749979" markerHeight="10.550836550532098" viewBox="-1.0 -1.3763819204711736 16.23606797749979 10.550836550532098" refX="-1.0" refY="3.8990363547948754"><path id="ProcessOnPath1015" d="M12.0 3.8990363547948754L0.0 7.798072709589751V0.0Z" stroke="#323232" stroke-width="2.0" fill="#323232" transform="matrix(1.0,0.0,0.0,1.0,0.0,0.0)"/></marker><marker id="ProcessOnMarker1073" markerUnits="userSpaceOnUse" orient="auto" markerWidth="16.23606797749979" markerHeight="10.550836550532098" viewBox="-1.0 -1.3763819204711736 16.23606797749979 10.550836550532098" refX="-1.0" refY="3.8990363547948754"><path id="ProcessOnPath1074" d="M12.0 3.8990363547948754L0.0 7.798072709589751V0.0Z" stroke="#323232" stroke-width="2.0" fill="#323232" transform="matrix(1.0,0.0,0.0,1.0,0.0,0.0)"/></marker><marker id="ProcessOnMarker1080" markerUnits="userSpaceOnUse" orient="auto" markerWidth="16.23606797749979" markerHeight="10.550836550532098" viewBox="-1.0 -1.3763819204711736 16.23606797749979 10.550836550532098" refX="-1.0" refY="3.8990363547948754"><path id="ProcessOnPath1081" d="M12.0 3.8990363547948754L0.0 7.798072709589751V0.0Z" stroke="#323232" stroke-width="2.0" fill="#323232" transform="matrix(1.0,0.0,0.0,1.0,0.0,0.0)"/></marker><marker id="ProcessOnMarker1087" markerUnits="userSpaceOnUse" orient="auto" markerWidth="16.23606797749979" markerHeight="10.550836550532098" viewBox="-1.0 -1.3763819204711736 16.23606797749979 10.550836550532098" refX="-1.0" refY="3.8990363547948754"><path id="ProcessOnPath1088" d="M12.0 3.8990363547948754L0.0 7.798072709589751V0.0Z" stroke="#323232" stroke-width="2.0" fill="#323232" transform="matrix(1.0,0.0,0.0,1.0,0.0,0.0)"/></marker><marker id="ProcessOnMarker1094" markerUnits="userSpaceOnUse" orient="auto" markerWidth="16.23606797749979" markerHeight="10.550836550532098" viewBox="-1.0 -1.3763819204711736 16.23606797749979 10.550836550532098" refX="-1.0" refY="3.8990363547948754"><path id="ProcessOnPath1095" d="M12.0 3.8990363547948754L0.0 7.798072709589751V0.0Z" stroke="#323232" stroke-width="2.0" fill="#323232" transform="matrix(1.0,0.0,0.0,1.0,0.0,0.0)"/></marker><marker id="ProcessOnMarker1101" markerUnits="userSpaceOnUse" orient="auto" markerWidth="16.23606797749979" markerHeight="10.550836550532098" viewBox="-1.0 -1.3763819204711736 16.23606797749979 10.550836550532098" refX="-1.0" refY="3.8990363547948754"><path id="ProcessOnPath1102" d="M12.0 3.8990363547948754L0.0 7.798072709589751V0.0Z" stroke="#323232" stroke-width="2.0" fill="#323232" transform="matrix(1.0,0.0,0.0,1.0,0.0,0.0)"/></marker><marker id="ProcessOnMarker1108" markerUnits="userSpaceOnUse" orient="auto" markerWidth="16.23606797749979" markerHeight="10.550836550532098" viewBox="-1.0 -1.3763819204711736 16.23606797749979 10.550836550532098" refX="-1.0" refY="3.8990363547948754"><path id="ProcessOnPath1109" d="M12.0 3.8990363547948754L0.0 7.798072709589751V0.0Z" stroke="#323232" stroke-width="2.0" fill="#323232" transform="matrix(1.0,0.0,0.0,1.0,0.0,0.0)"/></marker><marker id="ProcessOnMarker1125" markerUnits="userSpaceOnUse" orient="auto" markerWidth="16.23606797749979" markerHeight="10.550836550532098" viewBox="-1.0 -1.3763819204711736 16.23606797749979 10.550836550532098" refX="-1.0" refY="3.8990363547948754"><path id="ProcessOnPath1126" d="M12.0 3.8990363547948754L0.0 7.798072709589751V0.0Z" stroke="#ff66ff" stroke-width="2.0" fill="#ff66ff" transform="matrix(1.0,0.0,0.0,1.0,0.0,0.0)"/></marker><marker id="ProcessOnMarker1181" markerUnits="userSpaceOnUse" orient="auto" markerWidth="16.23606797749979" markerHeight="10.550836550532098" viewBox="-1.0 -1.3763819204711736 16.23606797749979 10.550836550532098" refX="-1.0" refY="3.8990363547948754"><path id="ProcessOnPath1182" d="M12.0 3.8990363547948754L0.0 7.798072709589751V0.0Z" stroke="#323232" stroke-width="2.0" fill="#323232" transform="matrix(1.0,0.0,0.0,1.0,0.0,0.0)"/></marker><marker id="ProcessOnMarker1188" markerUnits="userSpaceOnUse" orient="auto" markerWidth="16.23606797749979" markerHeight="10.550836550532098" viewBox="-1.0 -1.3763819204711736 16.23606797749979 10.550836550532098" refX="-1.0" refY="3.8990363547948754"><path id="ProcessOnPath1189" d="M12.0 3.8990363547948754L0.0 7.798072709589751V0.0Z" stroke="#323232" stroke-width="2.0" fill="#323232" transform="matrix(1.0,0.0,0.0,1.0,0.0,0.0)"/></marker><marker id="ProcessOnMarker1195" markerUnits="userSpaceOnUse" orient="auto" markerWidth="16.23606797749979" markerHeight="10.550836550532098" viewBox="-1.0 -1.3763819204711736 16.23606797749979 10.550836550532098" refX="-1.0" refY="3.8990363547948754"><path id="ProcessOnPath1196" d="M12.0 3.8990363547948754L0.0 7.798072709589751V0.0Z" stroke="#323232" stroke-width="2.0" fill="#323232" transform="matrix(1.0,0.0,0.0,1.0,0.0,0.0)"/></marker><marker id="ProcessOnMarker1202" markerUnits="userSpaceOnUse" orient="auto" markerWidth="16.23606797749979" markerHeight="10.550836550532098" viewBox="-1.0 -1.3763819204711736 16.23606797749979 10.550836550532098" refX="-1.0" refY="3.8990363547948754"><path id="ProcessOnPath1203" d="M12.0 3.8990363547948754L0.0 7.798072709589751V0.0Z" stroke="#323232" stroke-width="2.0" fill="#323232" transform="matrix(1.0,0.0,0.0,1.0,0.0,0.0)"/></marker><marker id="ProcessOnMarker1209" markerUnits="userSpaceOnUse" orient="auto" markerWidth="16.23606797749979" markerHeight="10.550836550532098" viewBox="-1.0 -1.3763819204711736 16.23606797749979 10.550836550532098" refX="-1.0" refY="3.8990363547948754"><path id="ProcessOnPath1210" d="M12.0 3.8990363547948754L0.0 7.798072709589751V0.0Z" stroke="#323232" stroke-width="2.0" fill="#323232" transform="matrix(1.0,0.0,0.0,1.0,0.0,0.0)"/></marker><marker id="ProcessOnMarker1216" markerUnits="userSpaceOnUse" orient="auto" markerWidth="16.23606797749979" markerHeight="10.550836550532098" viewBox="-1.0 -1.3763819204711736 16.23606797749979 10.550836550532098" refX="-1.0" refY="3.8990363547948754"><path id="ProcessOnPath1217" d="M12.0 3.8990363547948754L0.0 7.798072709589751V0.0Z" stroke="#323232" stroke-width="2.0" fill="#323232" transform="matrix(1.0,0.0,0.0,1.0,0.0,0.0)"/></marker><marker id="ProcessOnMarker1223" markerUnits="userSpaceOnUse" orient="auto" markerWidth="16.23606797749979" markerHeight="10.550836550532098" viewBox="-1.0 -1.3763819204711736 16.23606797749979 10.550836550532098" refX="-1.0" refY="3.8990363547948754"><path id="ProcessOnPath1224" d="M12.0 3.8990363547948754L0.0 7.798072709589751V0.0Z" stroke="#ff33ff" stroke-width="2.0" fill="#ff33ff" transform="matrix(1.0,0.0,0.0,1.0,0.0,0.0)"/></marker><marker id="ProcessOnMarker1275" markerUnits="userSpaceOnUse" orient="auto" markerWidth="16.23606797749979" markerHeight="10.550836550532098" viewBox="-1.0 -1.3763819204711736 16.23606797749979 10.550836550532098" refX="-1.0" refY="3.8990363547948754"><path id="ProcessOnPath1276" d="M12.0 3.8990363547948754L0.0 7.798072709589751V0.0Z" stroke="#ff66ff" stroke-width="2.0" fill="#ff66ff" transform="matrix(1.0,0.0,0.0,1.0,0.0,0.0)"/></marker><marker id="ProcessOnMarker1279" markerUnits="userSpaceOnUse" orient="auto" markerWidth="16.23606797749979" markerHeight="10.550836550532098" viewBox="-1.0 -1.3763819204711736 16.23606797749979 10.550836550532098" refX="-1.0" refY="3.8990363547948754"><path id="ProcessOnPath1280" d="M12.0 3.8990363547948754L0.0 7.798072709589751V0.0Z" stroke="#ff33ff" stroke-width="2.0" fill="#ff33ff" transform="matrix(1.0,0.0,0.0,1.0,0.0,0.0)"/></marker><marker id="ProcessOnMarker1283" markerUnits="userSpaceOnUse" orient="auto" markerWidth="16.23606797749979" markerHeight="10.550836550532098" viewBox="-1.0 -1.3763819204711736 16.23606797749979 10.550836550532098" refX="-1.0" refY="3.8990363547948754"><path id="ProcessOnPath1284" d="M12.0 3.8990363547948754L0.0 7.798072709589751V0.0Z" stroke="#ff66ff" stroke-width="2.0" fill="#ff66ff" transform="matrix(1.0,0.0,0.0,1.0,0.0,0.0)"/></marker><marker id="ProcessOnMarker1287" markerUnits="userSpaceOnUse" orient="auto" markerWidth="16.23606797749979" markerHeight="10.550836550532098" viewBox="-1.0 -1.3763819204711736 16.23606797749979 10.550836550532098" refX="-1.0" refY="3.8990363547948754"><path id="ProcessOnPath1288" d="M12.0 3.8990363547948754L0.0 7.798072709589751V0.0Z" stroke="#ff66ff" stroke-width="2.0" fill="#ff66ff" transform="matrix(1.0,0.0,0.0,1.0,0.0,0.0)"/></marker><marker id="ProcessOnMarker1291" markerUnits="userSpaceOnUse" orient="auto" markerWidth="16.23606797749979" markerHeight="10.550836550532098" viewBox="-1.0 -1.3763819204711736 16.23606797749979 10.550836550532098" refX="-1.0" refY="3.8990363547948754"><path id="ProcessOnPath1292" d="M12.0 3.8990363547948754L0.0 7.798072709589751V0.0Z" stroke="#ff66ff" stroke-width="2.0" fill="#ff66ff" transform="matrix(1.0,0.0,0.0,1.0,0.0,0.0)"/></marker></defs><g id="ProcessOnG1002"><path id="ProcessOnPath1003" d="M-9.5 55.0H1256.26200847727V1132.0H-9.5V55.0Z" fill="none"/><g id="ProcessOnG1004"><g id="ProcessOnG1005" transform="matrix(1.0,0.0,0.0,1.0,36.0,330.0)" opacity="1.0"><path id="ProcessOnPath1006" d="M23.333333333333332 12.5C23.333333333333332 -4.166666666666666 46.666666666666664 -4.166666666666666 46.666666666666664 12.5C46.666666666666664 29.166666666666668 23.333333333333332 29.166666666666668 23.333333333333332 12.5M35.0 25.0L35.0 75.0M35.0 75.0L5.833333333333333 100.0M35.0 75.0L64.16666666666666 100.0M0.0 50.0L70.0 50.0" stroke="#323232" stroke-width="2.0" stroke-dasharray="none" opacity="1.0" fill="#ffffff"/><path id="ProcessOnPath1007" d="M0.0 0.0L70.0 0.0L70.0 100.0L0.0 100.0Z" stroke="#323232" stroke-width="0.0" stroke-dasharray="none" opacity="1.0" fill="none"/><g id="ProcessOnG1008" transform="matrix(1.0,0.0,0.0,1.0,-20.0,106.875)"><text id="ProcessOnText1009" fill="#000000" font-weight="normal" font-style="normal" text-decoration="none" font-family="微软雅黑" text-anchor="middle" font-size="13" x="54.0" y="13.325">请求发送者</text></g></g><g id="ProcessOnG1010" transform="matrix(1.0,0.0,0.0,1.0,197.0,255.0)" opacity="1.0"><path id="ProcessOnPath1011" d="M0.0 4.0Q0.0 0.0 4.0 0.0L26.0 0.0Q30.0 0.0 30.0 4.0L30.0 292.0Q30.0 296.0 26.0 296.0L4.0 296.0Q0.0 296.0 0.0 292.0L0.0 4.0Z" stroke="#323232" stroke-width="2.0" stroke-dasharray="none" opacity="1.0" fill="#ffffff"/></g><g id="ProcessOnG1012"><path id="ProcessOnPath1013" d="M106.0 380.0L149.0 380.0L149.0 380.0L176.7639320225002 380.0" stroke="#323232" stroke-width="2.0" stroke-dasharray="none" fill="none" marker-end="url(#ProcessOnMarker1014)"/><g id="ProcessOnG1016" transform="matrix(1.0,0.0,0.0,1.0,141.38196601125009,371.875)"><path id="ProcessOnPath1017" d="M0 0H73.0V16.25H0Z" fill="#fff" transform="matrix(1.0,0.0,0.0,1.0,-36.5,0.0)"/><text id="ProcessOnText1018" fill="#000000" font-weight="normal" font-style="normal" text-decoration="none" font-family="微软雅黑" text-anchor="middle" font-size="13" x="0.0" y="13.325">Oauth2请求</text></g></g><g id="ProcessOnG1019" transform="matrix(1.0,0.0,0.0,1.0,523.0,266.5)" opacity="1.0"><path id="ProcessOnPath1020" d="M0.0 4.0Q0.0 0.0 4.0 0.0L26.0 0.0Q30.0 0.0 30.0 4.0L30.0 291.0Q30.0 295.0 26.0 295.0L4.0 295.0Q0.0 295.0 0.0 291.0L0.0 4.0Z" stroke="#323232" stroke-width="2.0" stroke-dasharray="none" opacity="1.0" fill="#ffffff"/></g><g id="ProcessOnG1021" transform="matrix(1.0,0.0,0.0,1.0,835.0,266.5)" opacity="1.0"><path id="ProcessOnPath1022" d="M0.0 4.0Q0.0 0.0 4.0 0.0L26.0 0.0Q30.0 0.0 30.0 4.0L30.0 291.0Q30.0 295.0 26.0 295.0L4.0 295.0Q0.0 295.0 0.0 291.0L0.0 4.0Z" stroke="#323232" stroke-width="2.0" stroke-dasharray="none" opacity="1.0" fill="#ffffff"/></g><g id="ProcessOnG1023" transform="matrix(1.0,0.0,0.0,1.0,1061.0,266.5)" opacity="1.0"><path id="ProcessOnPath1024" d="M0.0 35.28C0.0 -10.08 115.0 -10.08 115.0 35.28L115.0 216.72C115.0 262.08 0.0 262.08 0.0 216.72L0.0 35.28Z" stroke="#323232" stroke-width="2.0" stroke-dasharray="none" opacity="1.0" fill="#ffffff"/><path id="ProcessOnPath1025" d="M115.0 35.28C115.0 75.6 0.0 75.6 0.0 35.28L0.0 50.400000000000006C0.0 90.72 115.0 90.72 115.0 50.400000000000006L115.0 65.52C115.0 105.83999999999999 0.0 105.83999999999999 0.0 65.52C0.0 105.83999999999999 115.0 105.83999999999999 115.0 65.52Z" stroke="#323232" stroke-width="2.0" stroke-dasharray="none" opacity="1.0" fill="#ffffff"/><path id="ProcessOnPath1026" d="M0.0 25.200000000000003Q57.5 -25.200000000000003 115.0 25.200000000000003L115.0 226.8Q57.5 277.20000000000005 0.0 226.8L0.0 25.200000000000003Z" stroke="#323232" stroke-width="0.0" stroke-dasharray="none" opacity="1.0" fill="none"/><g id="ProcessOnG1027" transform="matrix(1.0,0.0,0.0,1.0,0.0,159.875)"><text id="ProcessOnText1028" fill="#000000" font-weight="normal" font-style="normal" text-decoration="none" font-family="微软雅黑" text-anchor="middle" font-size="13" x="56.5" y="13.325">存储媒介</text></g></g><g id="ProcessOnG1029" transform="matrix(1.0,0.0,0.0,1.0,121.0,143.0)" opacity="1.0"><path id="ProcessOnPath1030" d="M0.0 4.0Q0.0 0.0 4.0 0.0L187.0 0.0Q191.0 0.0 191.0 4.0L191.0 126.0Q191.0 130.0 187.0 130.0L4.0 130.0Q0.0 130.0 0.0 126.0Z" stroke="#323232" stroke-width="2.0" stroke-dasharray="none" opacity="1.0" fill="#ffffff"/><path id="ProcessOnPath1031" d="M0.0 30.0L191.0 30.0M0.0 73.0L191.0 73.0" stroke="#323232" stroke-width="2.0" stroke-dasharray="none" opacity="1.0" fill="none"/><path id="ProcessOnPath1032" d="M0.0 0.0L191.0 0.0L191.0 130.0L0.0 130.0Z" stroke="#323232" stroke-width="0.0" stroke-dasharray="none" opacity="1.0" fill="none"/><g id="ProcessOnG1033" transform="matrix(1.0,0.0,0.0,1.0,10.0,6.875)"><text id="ProcessOnText1034" fill="#000000" font-weight="bold" font-style="normal" text-decoration="none" font-family="微软雅黑" text-anchor="middle" font-size="13" x="84.5" y="13.325">BasicAuthenticationFilter</text></g><g id="ProcessOnG1035" transform="matrix(1.0,0.0,0.0,1.0,10.0,32.75)"><text id="ProcessOnText1036" fill="#000000" font-weight="bold" font-style="normal" text-decoration="none" font-family="微软雅黑" text-anchor="middle" font-size="13" x="84.5" y="13.325">AuthenticationManager</text><text id="ProcessOnText1037" fill="#000000" font-weight="bold" font-style="normal" text-decoration="none" font-family="微软雅黑" text-anchor="middle" font-size="13" x="84.5" y="29.575">：authenticationManager</text></g><g id="ProcessOnG1038" transform="matrix(1.0,0.0,0.0,1.0,10.0,77.625)"><text id="ProcessOnText1039" fill="#000000" font-weight="bold" font-style="normal" text-decoration="none" font-family="微软雅黑" text-anchor="middle" font-size="13" x="84.5" y="13.325">1、doFilter处理请求</text><text id="ProcessOnText1040" fill="#000000" font-weight="bold" font-style="normal" text-decoration="none" font-family="微软雅黑" text-anchor="middle" font-size="13" x="84.5" y="29.575">2、doFilterInternal:调用认</text><text id="ProcessOnText1041" fill="#000000" font-weight="bold" font-style="normal" text-decoration="none" font-family="微软雅黑" text-anchor="middle" font-size="13" x="84.5" y="45.825">证管理器进行的认证</text></g></g><g id="ProcessOnG1042" transform="matrix(1.0,0.0,0.0,1.0,423.0,131.5)" opacity="1.0"><path id="ProcessOnPath1043" d="M0.0 4.0Q0.0 0.0 4.0 0.0L226.0 0.0Q230.0 0.0 230.0 4.0L230.0 131.0Q230.0 135.0 226.0 135.0L4.0 135.0Q0.0 135.0 0.0 131.0Z" stroke="#323232" stroke-width="2.0" stroke-dasharray="none" opacity="1.0" fill="#ffffff"/><path id="ProcessOnPath1044" d="M0.0 30.0L230.0 30.0" stroke="#323232" stroke-width="2.0" stroke-dasharray="none" opacity="1.0" fill="none"/><path id="ProcessOnPath1045" d="M0.0 0.0L230.0 0.0L230.0 135.0L0.0 135.0Z" stroke="#323232" stroke-width="0.0" stroke-dasharray="none" opacity="1.0" fill="none"/><g id="ProcessOnG1046" transform="matrix(1.0,0.0,0.0,1.0,10.0,6.875)"><text id="ProcessOnText1047" fill="#000000" font-weight="bold" font-style="normal" text-decoration="none" font-family="微软雅黑" text-anchor="middle" font-size="13" x="104.0" y="13.325">DaoAuthenticationProvider</text></g><g id="ProcessOnG1048" transform="matrix(1.0,0.0,0.0,1.0,10.0,39.875)"><text id="ProcessOnText1049" fill="#000000" font-weight="bold" font-style="normal" text-decoration="none" font-family="微软雅黑" text-anchor="middle" font-size="13" x="104.0" y="13.325">调用默认UserDetailsService的实</text><text id="ProcessOnText1050" fill="#000000" font-weight="bold" font-style="normal" text-decoration="none" font-family="微软雅黑" text-anchor="middle" font-size="13" x="104.0" y="29.575">现类ClientDetailsUserDetailsSer</text><text id="ProcessOnText1051" fill="#000000" font-weight="bold" font-style="normal" text-decoration="none" font-family="微软雅黑" text-anchor="middle" font-size="13" x="104.0" y="45.825">vice加载数据,loadUserByUserna</text><text id="ProcessOnText1052" fill="#000000" font-weight="bold" font-style="normal" text-decoration="none" font-family="微软雅黑" text-anchor="middle" font-size="13" x="104.0" y="62.075">me,内部调用ClientDetailsServic</text><text id="ProcessOnText1053" fill="#000000" font-weight="bold" font-style="normal" text-decoration="none" font-family="微软雅黑" text-anchor="middle" font-size="13" x="104.0" y="78.325">e的loadClientByClientId</text></g></g><g id="ProcessOnG1054" transform="matrix(1.0,0.0,0.0,1.0,739.0,75.0)" opacity="1.0"><path id="ProcessOnPath1055" d="M0.0 4.0Q0.0 0.0 4.0 0.0L224.0 0.0Q228.0 0.0 228.0 4.0L228.0 187.5Q228.0 191.5 224.0 191.5L4.0 191.5Q0.0 191.5 0.0 187.5Z" stroke="#323232" stroke-width="2.0" stroke-dasharray="none" opacity="1.0" fill="#ffffff"/><path id="ProcessOnPath1056" d="M0.0 30.0L228.0 30.0" stroke="#323232" stroke-width="2.0" stroke-dasharray="none" opacity="1.0" fill="none"/><path id="ProcessOnPath1057" d="M0.0 0.0L228.0 0.0L228.0 191.5L0.0 191.5Z" stroke="#323232" stroke-width="0.0" stroke-dasharray="none" opacity="1.0" fill="none"/><g id="ProcessOnG1058" transform="matrix(1.0,0.0,0.0,1.0,10.0,6.875)"><text id="ProcessOnText1059" fill="#000000" font-weight="bold" font-style="normal" text-decoration="none" font-family="微软雅黑" text-anchor="middle" font-size="13" x="103.0" y="13.325">ClientDetailsService</text></g><g id="ProcessOnG1060" transform="matrix(1.0,0.0,0.0,1.0,10.0,31.25)"><text id="ProcessOnText1061" fill="#000000" font-weight="bold" font-style="normal" text-decoration="none" font-family="微软雅黑" text-anchor="middle" font-size="13" x="103.0" y="13.325">使用指定ClientDetailsService的</text><text id="ProcessOnText1062" fill="#000000" font-weight="bold" font-style="normal" text-decoration="none" font-family="微软雅黑" text-anchor="middle" font-size="13" x="103.0" y="29.575">实现类，调用loadClientByClientI</text><text id="ProcessOnText1063" fill="#000000" font-weight="bold" font-style="normal" text-decoration="none" font-family="微软雅黑" text-anchor="middle" font-size="13" x="103.0" y="45.825">d方法加载ClientDetails对象，而</text><text id="ProcessOnText1064" fill="#000000" font-weight="bold" font-style="normal" text-decoration="none" font-family="微软雅黑" text-anchor="middle" font-size="13" x="103.0" y="62.075">该接口的实现类有：</text><text id="ProcessOnText1065" fill="#000000" font-weight="bold" font-style="normal" text-decoration="none" font-family="微软雅黑" text-anchor="middle" font-size="13" x="103.0" y="78.325">1、InMemoryClientDetailsServi</text><text id="ProcessOnText1066" fill="#000000" font-weight="bold" font-style="normal" text-decoration="none" font-family="微软雅黑" text-anchor="middle" font-size="13" x="103.0" y="94.575">ce</text><text id="ProcessOnText1067" fill="#000000" font-weight="bold" font-style="normal" text-decoration="none" font-family="微软雅黑" text-anchor="middle" font-size="13" x="103.0" y="110.825">2、JdbcClientDetailsService</text><text id="ProcessOnText1068" fill="#000000" font-weight="bold" font-style="normal" text-decoration="none" font-family="微软雅黑" text-anchor="middle" font-size="13" x="103.0" y="127.075">认证信息存储方式：</text><text id="ProcessOnText1069" fill="#000000" font-weight="bold" font-style="normal" text-decoration="none" font-family="微软雅黑" text-anchor="middle" font-size="13" x="103.0" y="143.325">1、内存</text><text id="ProcessOnText1070" fill="#000000" font-weight="bold" font-style="normal" text-decoration="none" font-family="微软雅黑" text-anchor="middle" font-size="13" x="103.0" y="159.575">2、数据库</text></g></g><g id="ProcessOnG1071"><path id="ProcessOnPath1072" d="M227.0 310.9009287925697L375.0 310.9009287925697L375.0 312.5L507.7639320225002 312.5" stroke="#323232" stroke-width="2.0" stroke-dasharray="none" fill="none" marker-end="url(#ProcessOnMarker1073)"/><g id="ProcessOnG1075" transform="matrix(1.0,0.0,0.0,1.0,368.18150161496527,302.7759287925697)"><path id="ProcessOnPath1076" d="M0 0H162.0V16.25H0Z" fill="#fff" transform="matrix(1.0,0.0,0.0,1.0,-81.0,0.0)"/><text id="ProcessOnText1077" fill="#000000" font-weight="normal" font-style="normal" text-decoration="none" font-family="微软雅黑" text-anchor="middle" font-size="13" x="0.0" y="13.325">authenticate(authRequest)</text></g></g><g id="ProcessOnG1078"><path id="ProcessOnPath1079" d="M553.0 326.0L690.0 326.0L690.0 326.0L811.7639320225002 326.0" stroke="#323232" stroke-width="2.0" stroke-dasharray="none" fill="none" marker-end="url(#ProcessOnMarker1080)"/><g id="ProcessOnG1082" transform="matrix(1.0,0.0,0.0,1.0,682.3819660112501,317.875)"><path id="ProcessOnPath1083" d="M0 0H199.0V16.25H0Z" fill="#fff" transform="matrix(1.0,0.0,0.0,1.0,-99.5,0.0)"/><text id="ProcessOnText1084" fill="#000000" font-weight="normal" font-style="normal" text-decoration="none" font-family="微软雅黑" text-anchor="middle" font-size="13" x="0.0" y="13.325">loadUserByUsername(username)</text></g></g><g id="ProcessOnG1085"><path id="ProcessOnPath1086" d="M865.0 371.3191489361702L963.0 371.3191489361702L963.0 373.513698630137L1045.7639320225003 373.513698630137" stroke="#323232" stroke-width="2.0" stroke-dasharray="none" fill="none" marker-end="url(#ProcessOnMarker1087)"/><g id="ProcessOnG1089" transform="matrix(1.0,0.0,0.0,1.0,956.4792408582335,363.1941489361702)"><path id="ProcessOnPath1090" d="M0 0H123.0V16.25H0Z" fill="#fff" transform="matrix(1.0,0.0,0.0,1.0,-61.5,0.0)"/><text id="ProcessOnText1091" fill="#000000" font-weight="normal" font-style="normal" text-decoration="none" font-family="微软雅黑" text-anchor="middle" font-size="13" x="0.0" y="13.325">loadClientByClientId</text></g></g><g id="ProcessOnG1092"><path id="ProcessOnPath1093" d="M1061.0 446.0L961.5 446.0L961.5 446.0L877.2360679774998 446.0" stroke="#323232" stroke-width="2.0" stroke-dasharray="none" fill="none" marker-end="url(#ProcessOnMarker1094)"/><g id="ProcessOnG1096" transform="matrix(1.0,0.0,0.0,1.0,969.1180339887499,437.875)"><path id="ProcessOnPath1097" d="M0 0H102.0V16.25H0Z" fill="#fff" transform="matrix(1.0,0.0,0.0,1.0,-51.0,0.0)"/><text id="ProcessOnText1098" fill="#000000" font-weight="normal" font-style="normal" text-decoration="none" font-family="微软雅黑" text-anchor="middle" font-size="13" x="0.0" y="13.325">返回ClientDetails</text></g></g><g id="ProcessOnG1099"><path id="ProcessOnPath1100" d="M835.0 485.0L694.0 485.0L694.0 485.0L568.2360679774998 485.0" stroke="#323232" stroke-width="2.0" stroke-dasharray="none" fill="none" marker-end="url(#ProcessOnMarker1101)"/><g id="ProcessOnG1103" transform="matrix(1.0,0.0,0.0,1.0,701.6180339887499,476.875)"><path id="ProcessOnPath1104" d="M0 0H91.0V16.25H0Z" fill="#fff" transform="matrix(1.0,0.0,0.0,1.0,-45.5,0.0)"/><text id="ProcessOnText1105" fill="#000000" font-weight="normal" font-style="normal" text-decoration="none" font-family="微软雅黑" text-anchor="middle" font-size="13" x="0.0" y="13.325">与请求数据比较</text></g></g><g id="ProcessOnG1106"><path id="ProcessOnPath1107" d="M523.0 521.0L375.0 521.0L375.0 521.0L242.2360679774998 521.0" stroke="#323232" stroke-width="2.0" stroke-dasharray="none" fill="none" marker-end="url(#ProcessOnMarker1108)"/><g id="ProcessOnG1110" transform="matrix(1.0,0.0,0.0,1.0,382.6180339887499,512.875)"><path id="ProcessOnPath1111" d="M0 0H275.99999999999994V16.25H0Z" fill="#fff" transform="matrix(1.0,0.0,0.0,1.0,-137.99999999999997,0.0)"/><text id="ProcessOnText1112" fill="#000000" font-weight="normal" font-style="normal" text-decoration="none" font-family="微软雅黑" text-anchor="middle" font-size="13" x="0.0" y="13.325">认证成功，继续下个过滤器;认证失败，抛出异常</text></g></g><g id="ProcessOnG1113" transform="matrix(1.0,0.0,0.0,1.0,92.0,662.0)" opacity="1.0"><path id="ProcessOnPath1114" d="M0.0 4.0Q0.0 0.0 4.0 0.0L226.0 0.0Q230.0 0.0 230.0 4.0L230.0 99.0Q230.0 103.0 226.0 103.0L4.0 103.0Q0.0 103.0 0.0 99.0Z" stroke="#323232" stroke-width="2.0" stroke-dasharray="none" opacity="1.0" fill="#ffffff"/><path id="ProcessOnPath1115" d="M0.0 30.0L230.0 30.0" stroke="#323232" stroke-width="2.0" stroke-dasharray="none" opacity="1.0" fill="none"/><path id="ProcessOnPath1116" d="M0.0 0.0L230.0 0.0L230.0 103.0L0.0 103.0Z" stroke="#323232" stroke-width="0.0" stroke-dasharray="none" opacity="1.0" fill="none"/><g id="ProcessOnG1117" transform="matrix(1.0,0.0,0.0,1.0,10.0,6.875)"><text id="ProcessOnText1118" fill="#000000" font-weight="bold" font-style="normal" text-decoration="none" font-family="微软雅黑" text-anchor="middle" font-size="13" x="104.0" y="13.325">TokenEndpoint</text></g><g id="ProcessOnG1119" transform="matrix(1.0,0.0,0.0,1.0,10.0,40.125)"><text id="ProcessOnText1120" fill="#000000" font-weight="bold" font-style="normal" text-decoration="none" font-family="微软雅黑" text-anchor="middle" font-size="13" x="104.0" y="13.325">认证成功且过滤器链执行完毕，则请</text><text id="ProcessOnText1121" fill="#000000" font-weight="bold" font-style="normal" text-decoration="none" font-family="微软雅黑" text-anchor="middle" font-size="13" x="104.0" y="29.575">求映射到/oauth/token接口，试图</text><text id="ProcessOnText1122" fill="#000000" font-weight="bold" font-style="normal" text-decoration="none" font-family="微软雅黑" text-anchor="middle" font-size="13" x="104.0" y="45.825">获取AccessToken</text></g></g><g id="ProcessOnG1123"><path id="ProcessOnPath1124" d="M211.0 551.0L211.0 602.0L211.0 602.0L211.0 637.7639320225002" stroke="#ff66ff" stroke-width="2.0" stroke-dasharray="none" fill="none" marker-end="url(#ProcessOnMarker1125)"/></g><g id="ProcessOnG1127" transform="matrix(1.0,0.0,0.0,1.0,192.0,768.0)" opacity="1.0"><path id="ProcessOnPath1128" d="M0.0 4.0Q0.0 0.0 4.0 0.0L26.0 0.0Q30.0 0.0 30.0 4.0L30.0 340.0Q30.0 344.0 26.0 344.0L4.0 344.0Q0.0 344.0 0.0 340.0L0.0 4.0Z" stroke="#323232" stroke-width="2.0" stroke-dasharray="none" opacity="1.0" fill="#ffffff"/></g><g id="ProcessOnG1129" transform="matrix(1.0,0.0,0.0,1.0,377.0,643.5)" opacity="1.0"><path id="ProcessOnPath1130" d="M0.0 4.0Q0.0 0.0 4.0 0.0L226.0 0.0Q230.0 0.0 230.0 4.0L230.0 131.0Q230.0 135.0 226.0 135.0L4.0 135.0Q0.0 135.0 0.0 131.0Z" stroke="#323232" stroke-width="2.0" stroke-dasharray="none" opacity="1.0" fill="#ffffff"/><path id="ProcessOnPath1131" d="M0.0 30.0L230.0 30.0" stroke="#323232" stroke-width="2.0" stroke-dasharray="none" opacity="1.0" fill="none"/><path id="ProcessOnPath1132" d="M0.0 0.0L230.0 0.0L230.0 135.0L0.0 135.0Z" stroke="#323232" stroke-width="0.0" stroke-dasharray="none" opacity="1.0" fill="none"/><g id="ProcessOnG1133" transform="matrix(1.0,0.0,0.0,1.0,10.0,6.875)"><text id="ProcessOnText1134" fill="#000000" font-weight="bold" font-style="normal" text-decoration="none" font-family="微软雅黑" text-anchor="middle" font-size="13" x="104.0" y="13.325">ClientDetailsService</text></g><g id="ProcessOnG1135" transform="matrix(1.0,0.0,0.0,1.0,10.0,39.875)"><text id="ProcessOnText1136" fill="#000000" font-weight="bold" font-style="normal" text-decoration="none" font-family="微软雅黑" text-anchor="middle" font-size="13" x="104.0" y="13.325">1、该接口的实现类有：InMemory</text><text id="ProcessOnText1137" fill="#000000" font-weight="bold" font-style="normal" text-decoration="none" font-family="微软雅黑" text-anchor="middle" font-size="13" x="104.0" y="29.575">ClientDetailsService</text><text id="ProcessOnText1138" fill="#000000" font-weight="bold" font-style="normal" text-decoration="none" font-family="微软雅黑" text-anchor="middle" font-size="13" x="104.0" y="45.825">和JdbcClientDetailsService</text><text id="ProcessOnText1139" fill="#000000" font-weight="bold" font-style="normal" text-decoration="none" font-family="微软雅黑" text-anchor="middle" font-size="13" x="104.0" y="62.075">2、调用loadClientByClientId加载</text><text id="ProcessOnText1140" fill="#000000" font-weight="bold" font-style="normal" text-decoration="none" font-family="微软雅黑" text-anchor="middle" font-size="13" x="104.0" y="78.325">ClientDetails对象</text></g></g><g id="ProcessOnG1141" transform="matrix(1.0,0.0,0.0,1.0,674.0,639.5)" opacity="1.0"><path id="ProcessOnPath1142" d="M0.0 4.0Q0.0 0.0 4.0 0.0L226.0 0.0Q230.0 0.0 230.0 4.0L230.0 243.0Q230.0 247.0 226.0 247.0L4.0 247.0Q0.0 247.0 0.0 243.0Z" stroke="#323232" stroke-width="2.0" stroke-dasharray="none" opacity="1.0" fill="#ffffff"/><path id="ProcessOnPath1143" d="M0.0 30.0L230.0 30.0" stroke="#323232" stroke-width="2.0" stroke-dasharray="none" opacity="1.0" fill="none"/><path id="ProcessOnPath1144" d="M0.0 0.0L230.0 0.0L230.0 247.0L0.0 247.0Z" stroke="#323232" stroke-width="0.0" stroke-dasharray="none" opacity="1.0" fill="none"/><g id="ProcessOnG1145" transform="matrix(1.0,0.0,0.0,1.0,10.0,6.875)"><text id="ProcessOnText1146" fill="#000000" font-weight="bold" font-style="normal" text-decoration="none" font-family="微软雅黑" text-anchor="middle" font-size="13" x="104.0" y="13.325">TokenGranter</text></g><g id="ProcessOnG1147" transform="matrix(1.0,0.0,0.0,1.0,10.0,47.125)"><text id="ProcessOnText1148" fill="#000000" font-weight="bold" font-style="normal" text-decoration="none" font-family="微软雅黑" text-anchor="middle" font-size="13" x="104.0" y="13.325">抽象类：AbstractTokenGranter</text><text id="ProcessOnText1149" fill="#000000" font-weight="bold" font-style="normal" text-decoration="none" font-family="微软雅黑" text-anchor="middle" font-size="13" x="104.0" y="29.575">不同的子类处理不同的认证请求，并</text><text id="ProcessOnText1150" fill="#000000" font-weight="bold" font-style="normal" text-decoration="none" font-family="微软雅黑" text-anchor="middle" font-size="13" x="104.0" y="45.825">返回AccessToken</text><text id="ProcessOnText1151" fill="#000000" font-weight="bold" font-style="normal" text-decoration="none" font-family="微软雅黑" text-anchor="middle" font-size="13" x="104.0" y="62.075">1、AuthorizationCodeTokenGr</text><text id="ProcessOnText1152" fill="#000000" font-weight="bold" font-style="normal" text-decoration="none" font-family="微软雅黑" text-anchor="middle" font-size="13" x="104.0" y="78.325">anter</text><text id="ProcessOnText1153" fill="#000000" font-weight="bold" font-style="normal" text-decoration="none" font-family="微软雅黑" text-anchor="middle" font-size="13" x="104.0" y="94.575">2、ClientCredentialsTokenGran</text><text id="ProcessOnText1154" fill="#000000" font-weight="bold" font-style="normal" text-decoration="none" font-family="微软雅黑" text-anchor="middle" font-size="13" x="104.0" y="110.825">ter</text><text id="ProcessOnText1155" fill="#000000" font-weight="bold" font-style="normal" text-decoration="none" font-family="微软雅黑" text-anchor="middle" font-size="13" x="104.0" y="127.075">3、ResourceOwnerPasswordTo</text><text id="ProcessOnText1156" fill="#000000" font-weight="bold" font-style="normal" text-decoration="none" font-family="微软雅黑" text-anchor="middle" font-size="13" x="104.0" y="143.325">kenGranter</text><text id="ProcessOnText1157" fill="#000000" font-weight="bold" font-style="normal" text-decoration="none" font-family="微软雅黑" text-anchor="middle" font-size="13" x="104.0" y="159.575">4、ImplicitTokenGranter</text><text id="ProcessOnText1158" fill="#000000" font-weight="bold" font-style="normal" text-decoration="none" font-family="微软雅黑" text-anchor="middle" font-size="13" x="104.0" y="175.825">5、RefreshTokenGranter</text></g></g><g id="ProcessOnG1159" transform="matrix(1.0,0.0,0.0,1.0,1067.6256448409063,629.3183215254797)" opacity="1.0"><path id="ProcessOnPath1160" d="M0.0 4.0Q0.0 0.0 4.0 0.0L164.63636363636374 0.0Q168.63636363636374 0.0 168.63636363636374 4.0L168.63636363636374 163.0Q168.63636363636374 167.0 164.63636363636374 167.0L4.0 167.0Q0.0 167.0 0.0 163.0Z" stroke="#323232" stroke-width="2.0" stroke-dasharray="none" opacity="1.0" fill="#ffffff"/><path id="ProcessOnPath1161" d="M0.0 30.0L168.63636363636374 30.0" stroke="#323232" stroke-width="2.0" stroke-dasharray="none" opacity="1.0" fill="none"/><path id="ProcessOnPath1162" d="M0.0 0.0L168.63636363636374 0.0L168.63636363636374 167.0L0.0 167.0Z" stroke="#323232" stroke-width="0.0" stroke-dasharray="none" opacity="1.0" fill="none"/><g id="ProcessOnG1163" transform="matrix(1.0,0.0,0.0,1.0,10.0,6.875)"><text id="ProcessOnText1164" fill="#000000" font-weight="bold" font-style="normal" text-decoration="none" font-family="微软雅黑" text-anchor="middle" font-size="13" x="73.31818181818187" y="13.325">TokenStore</text></g><g id="ProcessOnG1165" transform="matrix(1.0,0.0,0.0,1.0,10.0,39.625)"><text id="ProcessOnText1166" fill="#000000" font-weight="bold" font-style="normal" text-decoration="none" font-family="微软雅黑" text-anchor="middle" font-size="13" x="73.31818181818187" y="13.325">存储方式：</text><text id="ProcessOnText1167" fill="#000000" font-weight="bold" font-style="normal" text-decoration="none" font-family="微软雅黑" text-anchor="middle" font-size="13" x="73.31818181818187" y="29.575">1、InMemoryTokenSt</text><text id="ProcessOnText1168" fill="#000000" font-weight="bold" font-style="normal" text-decoration="none" font-family="微软雅黑" text-anchor="middle" font-size="13" x="73.31818181818187" y="45.825">ore</text><text id="ProcessOnText1169" fill="#000000" font-weight="bold" font-style="normal" text-decoration="none" font-family="微软雅黑" text-anchor="middle" font-size="13" x="73.31818181818187" y="62.075">2、JdbcTokenStore</text><text id="ProcessOnText1170" fill="#000000" font-weight="bold" font-style="normal" text-decoration="none" font-family="微软雅黑" text-anchor="middle" font-size="13" x="73.31818181818187" y="78.325">3、JwtTokenStore</text><text id="ProcessOnText1171" fill="#000000" font-weight="bold" font-style="normal" text-decoration="none" font-family="微软雅黑" text-anchor="middle" font-size="13" x="73.31818181818187" y="94.575">4、RedisTokenStore</text><text id="ProcessOnText1172" fill="#000000" font-weight="bold" font-style="normal" text-decoration="none" font-family="微软雅黑" text-anchor="middle" font-size="13" x="73.31818181818187" y="110.825"></text></g></g><g id="ProcessOnG1173" transform="matrix(1.0,0.0,0.0,1.0,465.3696468820439,780.5454545454545)" opacity="1.0"><path id="ProcessOnPath1174" d="M0.0 4.0Q0.0 0.0 4.0 0.0L26.0 0.0Q30.0 0.0 30.0 4.0L30.0 326.5Q30.0 330.5 26.0 330.5L4.0 330.5Q0.0 330.5 0.0 326.5L0.0 4.0Z" stroke="#323232" stroke-width="2.0" stroke-dasharray="none" opacity="1.0" fill="#ffffff"/></g><g id="ProcessOnG1175" transform="matrix(1.0,0.0,0.0,1.0,774.0,886.5)" opacity="1.0"><path id="ProcessOnPath1176" d="M0.0 4.0Q0.0 0.0 4.0 0.0L26.0 0.0Q30.0 0.0 30.0 4.0L30.0 215.0Q30.0 219.0 26.0 219.0L4.0 219.0Q0.0 219.0 0.0 215.0L0.0 4.0Z" stroke="#323232" stroke-width="2.0" stroke-dasharray="none" opacity="1.0" fill="#ffffff"/></g><g id="ProcessOnG1177" transform="matrix(1.0,0.0,0.0,1.0,1137.1900329709226,795.4319718598457)" opacity="1.0"><path id="ProcessOnPath1178" d="M0.0 4.0Q0.0 0.0 4.0 0.0L26.0 0.0Q30.0 0.0 30.0 4.0L30.0 299.0Q30.0 303.0 26.0 303.0L4.0 303.0Q0.0 303.0 0.0 299.0L0.0 4.0Z" stroke="#323232" stroke-width="2.0" stroke-dasharray="none" opacity="1.0" fill="#ffffff"/></g><g id="ProcessOnG1179"><path id="ProcessOnPath1180" d="M222.0 851.0L344.5 851.0L344.5 851.0L451.7639320225002 851.0" stroke="#323232" stroke-width="2.0" stroke-dasharray="none" fill="none" marker-end="url(#ProcessOnMarker1181)"/><g id="ProcessOnG1183" transform="matrix(1.0,0.0,0.0,1.0,336.88196601125014,842.875)"><path id="ProcessOnPath1184" d="M0 0H158.0V16.25H0Z" fill="#fff" transform="matrix(1.0,0.0,0.0,1.0,-79.0,0.0)"/><text id="ProcessOnText1185" fill="#000000" font-weight="normal" font-style="normal" text-decoration="none" font-family="微软雅黑" text-anchor="middle" font-size="13" x="0.0" y="13.325">loadClientClientByClientId</text></g></g><g id="ProcessOnG1186"><path id="ProcessOnPath1187" d="M495.3696468820439 925.0454545454545L634.684823441022 925.0454545454545L634.684823441022 923.0L758.7639320225002 923.0" stroke="#323232" stroke-width="2.0" stroke-dasharray="none" fill="none" marker-end="url(#ProcessOnMarker1188)"/><g id="ProcessOnG1190" transform="matrix(1.0,0.0,0.0,1.0,628.0895167249993,916.9204545454545)"><path id="ProcessOnPath1191" d="M0 0H190.0V16.25H0Z" fill="#fff" transform="matrix(1.0,0.0,0.0,1.0,-95.0,0.0)"/><text id="ProcessOnText1192" fill="#000000" font-weight="normal" font-style="normal" text-decoration="none" font-family="微软雅黑" text-anchor="middle" font-size="13" x="0.0" y="13.325">grant(grantType,tokenRequest)</text></g></g><g id="ProcessOnG1193"><path id="ProcessOnPath1194" d="M804.0 943.0L970.5950164854613 943.0L970.5950164854613 940.4319718598457L1121.953964993423 940.4319718598457" stroke="#323232" stroke-width="2.0" stroke-dasharray="none" fill="none" marker-end="url(#ProcessOnMarker1195)"/><g id="ProcessOnG1197" transform="matrix(1.0,0.0,0.0,1.0,964.2609965667887,934.875)"><path id="ProcessOnPath1198" d="M0 0H287.0V16.25H0Z" fill="#fff" transform="matrix(1.0,0.0,0.0,1.0,-143.5,0.0)"/><text id="ProcessOnText1199" fill="#000000" font-weight="normal" font-style="normal" text-decoration="none" font-family="微软雅黑" text-anchor="middle" font-size="13" x="0.0" y="13.325">storeAccessToken(accessToken,authentication)</text></g></g><g id="ProcessOnG1200"><path id="ProcessOnPath1201" d="M1137.1900329709226 1022.9319718598454L973.0950164854613 1022.9319718598454L973.0950164854613 1022.0L824.2360679774998 1022.0" stroke="#323232" stroke-width="2.0" stroke-dasharray="none" fill="none" marker-end="url(#ProcessOnMarker1202)"/><g id="ProcessOnG1204" transform="matrix(1.0,0.0,0.0,1.0,980.2470645442886,1014.8069718598454)"><path id="ProcessOnPath1205" d="M0 0H105.0V16.25H0Z" fill="#fff" transform="matrix(1.0,0.0,0.0,1.0,-52.5,0.0)"/><text id="ProcessOnText1206" fill="#000000" font-weight="normal" font-style="normal" text-decoration="none" font-family="微软雅黑" text-anchor="middle" font-size="13" x="0.0" y="13.325">返回AccessToken</text></g></g><g id="ProcessOnG1207"><path id="ProcessOnPath1208" d="M774.0 1039.0L635.5 1039.0L635.5 1039.0L512.2360679774998 1039.0" stroke="#323232" stroke-width="2.0" stroke-dasharray="none" fill="none" marker-end="url(#ProcessOnMarker1209)"/><g id="ProcessOnG1211" transform="matrix(1.0,0.0,0.0,1.0,643.1180339887499,1030.875)"><path id="ProcessOnPath1212" d="M0 0H105.0V16.25H0Z" fill="#fff" transform="matrix(1.0,0.0,0.0,1.0,-52.5,0.0)"/><text id="ProcessOnText1213" fill="#000000" font-weight="normal" font-style="normal" text-decoration="none" font-family="微软雅黑" text-anchor="middle" font-size="13" x="0.0" y="13.325">返回AccessToken</text></g></g><g id="ProcessOnG1214"><path id="ProcessOnPath1215" d="M465.3696468820439 1074.0454545454545L343.684823441022 1074.0454545454545L343.684823441022 1072.0L237.2360679774998 1072.0" stroke="#323232" stroke-width="2.0" stroke-dasharray="none" fill="none" marker-end="url(#ProcessOnMarker1216)"/><g id="ProcessOnG1218" transform="matrix(1.0,0.0,0.0,1.0,350.2801301570446,1065.9204545454545)"><path id="ProcessOnPath1219" d="M0 0H105.0V16.25H0Z" fill="#fff" transform="matrix(1.0,0.0,0.0,1.0,-52.5,0.0)"/><text id="ProcessOnText1220" fill="#000000" font-weight="normal" font-style="normal" text-decoration="none" font-family="微软雅黑" text-anchor="middle" font-size="13" x="0.0" y="13.325">返回AccessToken</text></g></g><g id="ProcessOnG1221"><path id="ProcessOnPath1222" d="M92.0 713.5L69.0 713.5L69.0 469.2360679774998" stroke="#ff33ff" stroke-width="2.0" stroke-dasharray="none" fill="none" marker-end="url(#ProcessOnMarker1223)"/><g id="ProcessOnG1225" transform="matrix(1.0,0.0,0.0,1.0,69.0,586.6180339887499)"><path id="ProcessOnPath1226" d="M0 0H117.0V32.5H0Z" fill="#fff" transform="matrix(1.0,0.0,0.0,1.0,-58.5,0.0)"/><text id="ProcessOnText1227" fill="#000000" font-weight="normal" font-style="normal" text-decoration="none" font-family="微软雅黑" text-anchor="middle" font-size="13" x="0.0" y="13.325">认证授权成功，返回</text><text id="ProcessOnText1228" fill="#000000" font-weight="normal" font-style="normal" text-decoration="none" font-family="微软雅黑" text-anchor="middle" font-size="13" x="0.0" y="29.575">AccessToken</text></g></g><g id="ProcessOnG1229" transform="matrix(1.0,0.0,0.0,1.0,178.512396694215,393.6363636363633)" opacity="1.0"><path id="ProcessOnPath1230" d="M0.0 0.0L62.72727272727252 0.0L62.72727272727252 20.0L0.0 20.0Z" stroke="#ffff99" stroke-width="0.0" stroke-dasharray="none" opacity="1.0" fill="none"/><g id="ProcessOnG1231" transform="matrix(1.0,0.0,0.0,1.0,0.0,-6.25)"><text id="ProcessOnText1232" fill="#ff3399" font-weight="normal" font-style="normal" text-decoration="none" font-family="微软雅黑" text-anchor="middle" font-size="13" x="30.36363636363626" y="13.325">认证步骤0</text><text id="ProcessOnText1233" fill="#ff3399" font-weight="normal" font-style="normal" text-decoration="none" font-family="微软雅黑" text-anchor="middle" font-size="13" x="30.36363636363626" y="29.575">1</text></g></g><g id="ProcessOnG1234" transform="matrix(1.0,0.0,0.0,1.0,506.67167543200617,391.3824192336588)" opacity="1.0"><path id="ProcessOnPath1235" d="M0.0 0.0L62.72727272727252 0.0L62.72727272727252 20.0L0.0 20.0Z" stroke="#323232" stroke-width="0.0" stroke-dasharray="none" opacity="1.0" fill="none"/><g id="ProcessOnG1236" transform="matrix(1.0,0.0,0.0,1.0,0.0,-6.25)"><text id="ProcessOnText1237" fill="#ff3399" font-weight="normal" font-style="normal" text-decoration="none" font-family="微软雅黑" text-anchor="middle" font-size="13" x="30.36363636363626" y="13.325">认证步骤0</text><text id="ProcessOnText1238" fill="#ff3399" font-weight="normal" font-style="normal" text-decoration="none" font-family="微软雅黑" text-anchor="middle" font-size="13" x="30.36363636363626" y="29.575">2</text></g></g><g id="ProcessOnG1239" transform="matrix(1.0,0.0,0.0,1.0,819.1735537190084,393.80165289256166)" opacity="1.0"><path id="ProcessOnPath1240" d="M0.0 0.0L62.72727272727252 0.0L62.72727272727252 20.0L0.0 20.0Z" stroke="#323232" stroke-width="0.0" stroke-dasharray="none" opacity="1.0" fill="none"/><g id="ProcessOnG1241" transform="matrix(1.0,0.0,0.0,1.0,0.0,-6.25)"><text id="ProcessOnText1242" fill="#ff0080" font-weight="normal" font-style="normal" text-decoration="none" font-family="微软雅黑" text-anchor="middle" font-size="13" x="30.36363636363626" y="13.325">认证步骤0</text><text id="ProcessOnText1243" fill="#ff0080" font-weight="normal" font-style="normal" text-decoration="none" font-family="微软雅黑" text-anchor="middle" font-size="13" x="30.36363636363626" y="29.575">3</text></g></g><g id="ProcessOnG1244" transform="matrix(1.0,0.0,0.0,1.0,177.96393688955683,965.090157776108)" opacity="1.0"><path id="ProcessOnPath1245" d="M0.0 0.0L62.72727272727252 0.0L62.72727272727252 20.0L0.0 20.0Z" stroke="#323232" stroke-width="0.0" stroke-dasharray="none" opacity="1.0" fill="none"/><g id="ProcessOnG1246" transform="matrix(1.0,0.0,0.0,1.0,0.0,-6.25)"><text id="ProcessOnText1247" fill="#ff0080" font-weight="normal" font-style="normal" text-decoration="none" font-family="微软雅黑" text-anchor="middle" font-size="13" x="30.36363636363626" y="13.325">授权步骤0</text><text id="ProcessOnText1248" fill="#ff0080" font-weight="normal" font-style="normal" text-decoration="none" font-family="微软雅黑" text-anchor="middle" font-size="13" x="30.36363636363626" y="29.575">1</text></g></g><g id="ProcessOnG1249" transform="matrix(1.0,0.0,0.0,1.0,217.27272727272717,579.0909090909091)" opacity="1.0"><path id="ProcessOnPath1250" d="M0.0 0.0L62.72727272727252 0.0L62.72727272727252 20.0L0.0 20.0Z" stroke="#323232" stroke-width="0.0" stroke-dasharray="none" opacity="1.0" fill="none"/><g id="ProcessOnG1251" transform="matrix(1.0,0.0,0.0,1.0,0.0,-6.25)"><text id="ProcessOnText1252" fill="#ff0080" font-weight="normal" font-style="normal" text-decoration="none" font-family="微软雅黑" text-anchor="middle" font-size="13" x="30.36363636363626" y="13.325">认证成功</text><text id="ProcessOnText1253" fill="#ff0080" font-weight="normal" font-style="normal" text-decoration="none" font-family="微软雅黑" text-anchor="middle" font-size="13" x="30.36363636363626" y="29.575">授权开始</text></g></g><g id="ProcessOnG1254" transform="matrix(1.0,0.0,0.0,1.0,448.99118912642626,967.4576065966681)" opacity="1.0"><path id="ProcessOnPath1255" d="M0.0 0.0L62.72727272727252 0.0L62.72727272727252 20.0L0.0 20.0Z" stroke="#323232" stroke-width="0.0" stroke-dasharray="none" opacity="1.0" fill="none"/><g id="ProcessOnG1256" transform="matrix(1.0,0.0,0.0,1.0,0.0,-6.25)"><text id="ProcessOnText1257" fill="#ff0080" font-weight="normal" font-style="normal" text-decoration="none" font-family="微软雅黑" text-anchor="middle" font-size="13" x="30.36363636363626" y="13.325">授权步骤0</text><text id="ProcessOnText1258" fill="#ff0080" font-weight="normal" font-style="normal" text-decoration="none" font-family="微软雅黑" text-anchor="middle" font-size="13" x="30.36363636363626" y="29.575">2</text></g></g><g id="ProcessOnG1259" transform="matrix(1.0,0.0,0.0,1.0,757.3328324567995,967.3140495867768)" opacity="1.0"><path id="ProcessOnPath1260" d="M0.0 0.0L62.72727272727252 0.0L62.72727272727252 20.0L0.0 20.0Z" stroke="#323232" stroke-width="0.0" stroke-dasharray="none" opacity="1.0" fill="none"/><g id="ProcessOnG1261" transform="matrix(1.0,0.0,0.0,1.0,0.0,-6.25)"><text id="ProcessOnText1262" fill="#cc0066" font-weight="normal" font-style="normal" text-decoration="none" font-family="微软雅黑" text-anchor="middle" font-size="13" x="30.36363636363626" y="13.325">授权步骤0</text><text id="ProcessOnText1263" fill="#cc0066" font-weight="normal" font-style="normal" text-decoration="none" font-family="微软雅黑" text-anchor="middle" font-size="13" x="30.36363636363626" y="29.575">3</text></g></g><g id="ProcessOnG1264" transform="matrix(1.0,0.0,0.0,1.0,1114.297520661158,966.4876033057852)" opacity="1.0"><path id="ProcessOnPath1265" d="M0.0 0.0L62.72727272727252 0.0L62.72727272727252 20.0L0.0 20.0Z" stroke="#323232" stroke-width="0.0" stroke-dasharray="none" opacity="1.0" fill="none"/><g id="ProcessOnG1266" transform="matrix(1.0,0.0,0.0,1.0,0.0,-6.25)"><text id="ProcessOnText1267" fill="#ff0080" font-weight="normal" font-style="normal" text-decoration="none" font-family="微软雅黑" text-anchor="middle" font-size="13" x="30.36363636363626" y="13.325">授权步骤0</text><text id="ProcessOnText1268" fill="#ff0080" font-weight="normal" font-style="normal" text-decoration="none" font-family="微软雅黑" text-anchor="middle" font-size="13" x="30.36363636363626" y="29.575">4</text></g></g><g id="ProcessOnG1269" transform="matrix(1.0,0.0,0.0,1.0,13.861758076634317,664.8196844477836)" opacity="1.0"><path id="ProcessOnPath1270" d="M0.0 0.0L62.72727272727252 0.0L62.72727272727252 20.0L0.0 20.0Z" stroke="#323232" stroke-width="0.0" stroke-dasharray="none" opacity="1.0" fill="none"/><g id="ProcessOnG1271" transform="matrix(1.0,0.0,0.0,1.0,0.0,1.875)"><text id="ProcessOnText1272" fill="#ff0080" font-weight="normal" font-style="normal" text-decoration="none" font-family="微软雅黑" text-anchor="middle" font-size="13" x="30.36363636363626" y="13.325">授权结束</text></g></g><g id="ProcessOnG1273"><path id="ProcessOnPath1274" d="M238.18181818181816 401.3824192336588L376.3636363636364 401.3824192336588L376.3636363636364 401.3824192336588L499.30938656795473 401.3824192336588" stroke="#ff66ff" stroke-width="2.0" stroke-dasharray="none" fill="none" marker-end="url(#ProcessOnMarker1275)"/></g><g id="ProcessOnG1277"><path id="ProcessOnPath1278" d="M557.2727272727277 403.2006010518402L695.4545454545456 403.2006010518402L695.4545454545456 403.2006010518402L818.4002956588638 403.2006010518402" stroke="#ff33ff" stroke-width="2.0" stroke-dasharray="none" fill="none" marker-end="url(#ProcessOnMarker1279)"/></g><g id="ProcessOnG1281"><path id="ProcessOnPath1282" d="M222.7272727272727 979.5642374154772L345.9090909090901 979.5642374154772L345.9090909090901 979.5642374154772L453.85484111340827 979.5642374154772" stroke="#ff66ff" stroke-width="2.0" stroke-dasharray="none" fill="none" marker-end="url(#ProcessOnMarker1283)"/></g><g id="ProcessOnG1285"><path id="ProcessOnPath1286" d="M494.73328324568024 986.590909090909L624.639368895567 986.590909090909L624.639368895567 984.1096919609322L739.3093865679539 984.1096919609322" stroke="#ff66ff" stroke-width="2.0" stroke-dasharray="none" fill="none" marker-end="url(#ProcessOnMarker1287)"/></g><g id="ProcessOnG1289"><path id="ProcessOnPath1290" d="M803.6363636363636 986.3636363636363L957.2727272727263 986.3636363636363L957.2727272727263 986.8369646882052L1095.6730229315892 986.8369646882052" stroke="#ff66ff" stroke-width="2.0" stroke-dasharray="none" fill="none" marker-end="url(#ProcessOnMarker1291)"/></g></g></g></svg>